<svg width="162" height="51" viewBox="0 0 162 51" fill="none" xmlns="http://www.w3.org/2000/svg">
<g clip-path="url(#clip0_1_71)">
<path d="M25.65 12.25C34.98 3.62001 45.99 -0.449991 58.66 0.0400089C71.33 0.540009 81.99 5.45001 90.62 14.79L64.97 38.51C55.63 47.14 44.63 51.21 31.96 50.72C19.29 50.23 8.63 45.31 0 35.97L25.65 12.25Z" fill="#C23F6A"/>
<path d="M96.95 12.25C106.28 3.62001 117.29 -0.449991 129.96 0.0400089C142.63 0.540009 153.29 5.45001 161.92 14.79L136.27 38.51C126.93 47.14 115.93 51.21 103.26 50.72C90.59 50.23 79.93 45.31 71.3 35.97L96.95 12.25Z" fill="#339999"/>
</g>
<defs>
<clipPath id="clip0_1_71">
<rect width="161.93" height="50.76" fill="white"/>
</clipPath>
</defs>
</svg>
